<?xml version="1.0" encoding="UTF-8"?><svg xmlns="http://www.w3.org/2000/svg" xmlns:xlink="http://www.w3.org/1999/xlink" height="495.0" preserveAspectRatio="xMidYMid meet" version="1.0" viewBox="0.8 0.8 496.3 495.0" width="496.3" zoomAndPan="magnify"><g><g id="change1_1"><path d="M 495.625 243.453125 C 497.019531 295.792969 481.945312 344.738281 455.105469 385.335938 C 452.554688 389.203125 449.890625 392.992188 447.128906 396.699219 C 445.726562 398.578125 444.300781 400.4375 442.851562 402.273438 C 401.097656 455.09375 338.035156 490.476562 266.226562 495.179688 C 263.015625 495.390625 259.789062 495.539062 256.550781 495.625 C 253.308594 495.710938 250.078125 495.734375 246.863281 495.695312 C 174.738281 494.824219 109.75 462.707031 65.234375 411.984375 C 63.789062 410.34375 62.367188 408.679688 60.96875 406.996094 C 58.011719 403.441406 55.152344 399.800781 52.394531 396.074219 C 23.433594 356.964844 5.769531 308.890625 4.375 256.550781 C 0.757812 120.894531 107.796875 7.992188 243.449219 4.375 C 379.105469 0.757812 492.007812 107.796875 495.625 243.453125" fill="#f2f2f2"/></g><g id="change2_1"><path d="M 442.851562 402.273438 C 401.097656 455.09375 338.035156 490.476562 266.226562 495.179688 C 263.015625 495.390625 259.789062 495.539062 256.550781 495.625 C 253.308594 495.710938 250.078125 495.734375 246.863281 495.695312 C 174.738281 494.824219 109.75 462.707031 65.234375 411.984375 C 82.035156 401.5625 107.6875 393.257812 123.519531 388.835938 C 141.46875 383.816406 170.652344 381.273438 186.546875 367.1875 L 189.992188 352.925781 L 196.761719 352.746094 C 200.175781 345.609375 202.847656 337.03125 201.886719 331.199219 C 200.386719 322.058594 192.179688 318.144531 186.863281 311.347656 C 181.132812 304.023438 176.195312 295.929688 171.640625 287.832031 C 167.09375 279.757812 163.863281 271.351562 160.15625 262.875 C 159.070312 260.390625 153.855469 268.074219 147.550781 261.703125 C 131.535156 245.527344 130.507812 216.308594 129.789062 206.417969 C 128.617188 190.316406 137.429688 196.679688 141.070312 198.675781 C 140.769531 191.105469 139.570312 131.882812 139.21875 118.742188 C 138.933594 107.945312 144.164062 71.574219 173.65625 79.976562 C 180.875 82.03125 170.347656 59.714844 199.878906 56.574219 C 214.257812 55.054688 225.945312 55.757812 248.144531 43.128906 C 256.957031 38.117188 281.722656 39.386719 291.054688 44.546875 C 317.066406 58.933594 309.765625 56.230469 324.9375 67.316406 C 340.703125 78.839844 328.667969 80.183594 343.476562 92.730469 C 356.914062 104.113281 349.960938 142.039062 350.753906 158.476562 C 350.847656 160.445312 351.824219 188.003906 352.15625 192.203125 C 356.0625 188.824219 363.28125 187.171875 362.9375 204.992188 C 362.679688 218.46875 359.625 253.367188 345.144531 256.433594 C 338.601562 257.828125 340.203125 250.339844 338.210938 257.304688 C 335.078125 268.253906 331.011719 278.621094 326.128906 288.898438 C 320.164062 301.464844 312.382812 311.851562 304.824219 323.332031 C 299.132812 331.980469 303.703125 340.621094 306.210938 349.828125 L 312.914062 349.648438 L 317.03125 363.410156 C 336.082031 376.421875 373.660156 380.15625 388.46875 383.050781 C 406.457031 386.570312 425.699219 393.265625 442.851562 402.273438"/></g></g></svg>